<?xml version="1.0" encoding="utf-8"?>
<!-- Generator: Adobe Illustrator 14.0.0, SVG Export Plug-In  -->
<!DOCTYPE svg PUBLIC "-//W3C//DTD SVG 1.1//EN" "http://www.w3.org/Graphics/SVG/1.1/DTD/svg11.dtd" [
	<!ENTITY ns_flows "http://ns.adobe.com/Flows/1.0/">
]>
<svg version="1.1"
	 xmlns="http://www.w3.org/2000/svg" xmlns:xlink="http://www.w3.org/1999/xlink" xmlns:a="http://ns.adobe.com/AdobeSVGViewerExtensions/3.0/"
	 x="0px" y="0px" width="290px" height="298px" viewBox="0 0 290 298" enable-background="new 0 0 290 298" xml:space="preserve">
<defs>
</defs>
<path fill="#3C2415" d="M277,274.747c0,5.5-4.5,10-10,10H23c-5.5,0-10-4.5-10-10V23c0-5.5,4.5-10,10-10h244c5.5,0,10,4.5,10,10
	V274.747z"/>
<path fill="#DEB026" d="M23,293.747c-10.477,0-19-8.523-19-19V23C4,12.523,12.523,4,23,4h244c10.477,0,19,8.523,19,19v251.747
	c0,10.477-8.523,19-19,19H23z M23,22c-0.551,0-1,0.448-1,1v251.747c0,0.552,0.449,1,1,1h244c0.552,0,1-0.448,1-1V23
	c0-0.552-0.448-1-1-1H23z"/>
<path fill="#3C2415" d="M267,8c8.271,0,15,6.729,15,15v251.747c0,8.271-6.729,15-15,15H23c-8.271,0-15-6.729-15-15V23
	c0-8.271,6.729-15,15-15H267 M23,279.747h244c2.757,0,5-2.243,5-5V23c0-2.757-2.243-5-5-5H23c-2.757,0-5,2.243-5,5v251.747
	C18,277.504,20.243,279.747,23,279.747 M267,0H23C10.318,0,0,10.317,0,23v251.747c0,12.683,10.318,23,23,23h244
	c12.683,0,23-10.317,23-23V23C290,10.317,279.683,0,267,0L267,0z M26,26h238v245.747H26V26L26,26z"/>
<path fill="#DEB026" d="M75,174h145c8.271,0,15-6.729,15-15V45c0-8.271-6.729-15-15-15H75c-8.271,0-15,6.729-15,15v114
	C60,167.271,66.729,174,75,174z M72,45c0-1.626,1.374-3,3-3h145c1.626,0,3,1.374,3,3v114c0,1.626-1.374,3-3,3H75
	c-1.626,0-3-1.374-3-3V45z"/>
<path fill="#DEB026" d="M237.646,191.601c0-5.846-4.755-10.601-10.601-10.601H63.801c-5.846,0-10.6,4.755-10.6,10.601L32,254.727
	c0,5.846,4.754,10.601,10.601,10.601h205.646c5.845,0,10.6-4.755,10.6-10.601L237.646,191.601z M234.182,206.534h-22.08
	l-0.869-4.665h21.383L234.182,206.534z M238.424,219.164h-23.969l-0.862-4.63h23.275L238.424,219.164z M206.317,219.164h-24.375
	l-0.431-4.63h23.942L206.317,219.164z M173.908,219.164h-24.484v-4.63h24.054L173.908,219.164z M149.424,206.534v-4.665h22.873
	l0.435,4.665H149.424z M141.424,206.534h-23.309l0.435-4.665h22.874V206.534z M141.424,214.534v4.63h-24.485l0.432-4.63H141.424z
	 M108.904,219.164H84.529l0.863-4.63h23.942L108.904,219.164z M108.158,227.164l-0.432,4.629H82.176l0.863-4.629H108.158z
	 M116.193,227.164h25.23v4.629h-25.662L116.193,227.164z M141.424,239.793v4.665h-26.842l0.435-4.665H141.424z M149.424,239.793
	h26.407l0.435,4.665h-26.842V239.793z M149.424,231.793v-4.629h25.23l0.432,4.629H149.424z M182.688,227.164h25.119l0.862,4.629
	h-25.551L182.688,227.164z M215.946,227.164h24.527v-1.896l2.191,6.524h-25.856L215.946,227.164z M203.964,206.534h-23.198
	l-0.435-4.665h22.763L203.964,206.534z M179.586,193.869l-0.409-4.39h21.608l0.818,4.39H179.586z M171.552,193.869h-22.128v-4.39
	h21.719L171.552,193.869z M141.424,193.869h-22.129l0.409-4.39h21.72V193.869z M111.26,193.869H89.243l0.818-4.39h21.607
	L111.26,193.869z M110.515,201.869l-0.435,4.665H86.883l0.869-4.665H110.515z M78.746,206.534h-22.08l1.566-4.665h21.383
	L78.746,206.534z M77.256,214.534l-0.863,4.63H52.424l1.555-4.63H77.256z M74.902,227.164l-0.863,4.629H48.183l2.19-6.524v1.896
	H74.902z M72.549,239.793l-0.869,4.665H43.93l1.566-4.665H72.549z M80.686,239.793h26.297l-0.436,4.665h-26.73L80.686,239.793z
	 M105.802,252.458l-0.409,4.39H77.508l0.818-4.39H105.802z M113.837,252.458h27.587v4.39h-27.996L113.837,252.458z M149.424,252.458
	h27.587l0.409,4.39h-27.996V252.458z M185.045,252.458h27.477l0.817,4.39h-27.885L185.045,252.458z M184.3,244.458l-0.435-4.665
	h26.296l0.869,4.665H184.3z M218.299,239.793h27.053l1.566,4.665h-27.749L218.299,239.793z M229.166,191.601l0.762,2.269h-20.187
	l-0.817-4.39h18.122C228.195,189.479,229.166,190.451,229.166,191.601z M63.801,189.479h18.123l-0.818,4.39H60.919l0.762-2.269
	C61.681,190.451,62.652,189.479,63.801,189.479z M40.48,254.727l0.762-2.269h28.946l-0.818,4.39h-26.77
	C41.451,256.848,40.48,255.876,40.48,254.727z M248.247,256.848h-26.77l-0.818-4.39h28.946l0.762,2.269
	C250.367,255.876,249.396,256.848,248.247,256.848z"/>
<path fill="#DEB026" d="M76.805,89.848c-0.516,0-0.968-0.183-1.354-0.548c-0.388-0.365-0.581-0.827-0.581-1.387v-5.547
	c0-0.559,0.193-1.032,0.581-1.419c0.387-0.388,0.839-0.581,1.354-0.581h29.089c0.517,0,0.968,0.193,1.354,0.581
	c0.388,0.387,0.581,0.86,0.581,1.419v5.547c0,0.56-0.193,1.021-0.581,1.387c-0.387,0.365-0.838,0.548-1.354,0.548h-9.61v39.475
	c0,0.516-0.193,0.967-0.58,1.354c-0.387,0.387-0.839,0.58-1.354,0.58H88.35c-0.516,0-0.967-0.193-1.354-0.58
	c-0.388-0.388-0.581-0.839-0.581-1.354V89.848H76.805z"/>
<path fill="#DEB026" d="M140.467,96.233v3.225c0,0.56-0.184,1.032-0.548,1.419c-0.366,0.388-0.829,0.581-1.388,0.581h-11.545
	c-0.517,0-0.968-0.193-1.354-0.581c-0.387-0.387-0.581-0.859-0.581-1.419v-3.611h-2.386v33.476c0,0.516-0.193,0.967-0.581,1.354
	c-0.387,0.387-0.86,0.58-1.419,0.58h-5.547c-0.56,0-1.032-0.193-1.419-0.58c-0.387-0.388-0.58-0.839-0.58-1.354V82.366
	c0-0.559,0.193-1.032,0.58-1.419c0.387-0.388,0.859-0.581,1.419-0.581h5.547c0.559,0,1.032,0.193,1.419,0.581
	c0.388,0.387,0.581,0.86,0.581,1.419v3.611h3.611c0.559,0,1.021,0.193,1.387,0.581c0.365,0.387,0.549,0.838,0.549,1.354v3.999h8.385
	v-3.999c0-0.517,0.193-0.968,0.58-1.354c0.388-0.388,0.839-0.581,1.354-0.581h4.063v-3.611c0-0.559,0.194-1.032,0.581-1.419
	c0.387-0.388,0.859-0.581,1.419-0.581h5.482c0.559,0,1.032,0.193,1.419,0.581c0.387,0.387,0.581,0.86,0.581,1.419v46.956
	c0,0.516-0.194,0.967-0.581,1.354c-0.387,0.387-0.86,0.58-1.419,0.58h-5.482c-0.56,0-1.032-0.193-1.419-0.58
	c-0.387-0.388-0.581-0.839-0.581-1.354V96.233H140.467z"/>
<path fill="#DEB026" d="M166.718,80.366c0.516,0,0.968,0.193,1.354,0.581c0.387,0.387,0.58,0.86,0.58,1.419v39.409h21.543
	c0.517,0,0.968,0.193,1.354,0.58c0.388,0.388,0.581,0.839,0.581,1.354v5.612c0,0.516-0.193,0.967-0.581,1.354
	c-0.387,0.387-0.838,0.58-1.354,0.58h-29.089c-0.517,0-0.968-0.193-1.354-0.58c-0.387-0.388-0.581-0.839-0.581-1.354V82.366
	c0-0.559,0.194-1.032,0.581-1.419c0.387-0.388,0.838-0.581,1.354-0.581H166.718z"/>
<path fill="#DEB026" d="M218.253,137.385c0.559,0,1.032,0.193,1.419,0.58c0.388,0.387,0.581,0.859,0.581,1.419v5.225
	c0,0.516-0.193,0.968-0.581,1.354c-0.387,0.387-0.86,0.58-1.419,0.58h-34.959c-0.558,0-1.031-0.193-1.419-0.58
	c-0.387-0.387-0.58-0.839-0.58-1.354v-5.225c0-0.56,0.193-1.032,0.58-1.419c0.388-0.387,0.861-0.58,1.419-0.58H218.253z"/>
</svg>
